<?xml version="1.0" encoding="UTF-8"?>
<svg width="5068px" height="5068px" viewBox="0 0 5068 5068" version="1.1" xmlns="http://www.w3.org/2000/svg" xmlns:xlink="http://www.w3.org/1999/xlink">
    <!-- Generator: Sketch 46.2 (44496) - http://www.bohemiancoding.com/sketch -->
    <title>topcoin_logo_black_transparent.d77496b1</title>
    <desc>Created with Sketch.</desc>
    <defs></defs>
    <g id="Page-1" stroke="none" stroke-width="1" fill="none" fill-rule="evenodd">
        <g id="topcoin_logo_black_transparent.d77496b1" fill-rule="nonzero" fill="#FFAE02">
            <g id="Page-1">
                <g id="Black-transparent" transform="translate(2534.000000, 2534.000000) scale(-1, 1) translate(-2534.000000, -2534.000000) ">
                    <path d="M2534,5068 C1134.51044,5068 0,3933.48956 0,2534 C0,1134.51044 1134.51044,0 2534,0 C3933.48956,0 5068,1134.51044 5068,2534 C5068,3933.48956 3933.48956,5068 2534,5068 Z M2534,4790.84375 C3769.48688,4790.84375 4771.04687,3789.28375 4771.04687,2553.79687 C4771.04687,1318.31 3769.48688,316.75 2534,316.75 C1298.51312,316.75 296.953125,1318.31 296.953125,2553.79687 C296.953125,3789.28375 1298.51312,4790.84375 2534,4790.84375 Z" id="Oval-1-Copy-4"></path>
                    <path d="M2375.625,2266.74219 L2375.625,3415.15394 C2375.625,3496.90056 2442.10021,3563.4375 2524.10156,3563.4375 C2605.93604,3563.4375 2672.57812,3497.0487 2672.57812,3415.15394 L2672.57812,2266.74219 L3365.55204,2266.74219 C3447.51147,2266.74219 3513.94531,2200.26697 3513.94531,2118.26562 C3513.94531,2036.43114 3447.50738,1969.78906 3365.55204,1969.78906 L1682.65109,1969.78906 C1600.69165,1969.78906 1534.25781,2036.26428 1534.25781,2118.26562 C1534.25781,2200.10011 1600.69575,2266.74219 1682.65109,2266.74219 L2375.625,2266.74219 Z M2524.10156,4483.99219 C1452.61738,4483.99219 584.007812,3615.38262 584.007812,2543.89844 C584.007812,1472.41426 1452.61738,603.804687 2524.10156,603.804687 C3595.58574,603.804687 4464.19531,1472.41426 4464.19531,2543.89844 C4464.19531,3615.38262 3595.58574,4483.99219 2524.10156,4483.99219 Z M1534.25781,1623.34375 C1534.25781,1705.17823 1600.69575,1771.82031 1682.65109,1771.82031 L3365.55204,1771.82031 C3447.51147,1771.82031 3513.94531,1705.3451 3513.94531,1623.34375 C3513.94531,1541.50927 3447.50738,1474.86719 3365.55204,1474.86719 L1682.65109,1474.86719 C1600.69165,1474.86719 1534.25781,1541.3424 1534.25781,1623.34375 Z" id="Oval-1-Copy-3"></path>
                </g>
            </g>
        </g>
    </g>
</svg>